<mxfile host="app.diagrams.net" modified="2023-09-26T19:27:20.359Z" agent="Mozilla/5.0 (Windows NT 10.0; Win64; x64) AppleWebKit/537.36 (KHTML, like Gecko) Chrome/117.0.0.0 Safari/537.36" version="21.7.2" etag="6q-zTt5Nd9CxefguGrVc" type="github">
  <diagram name="Page-1" id="HlM5J8EpncPCog0nGQ84">
    <mxGraphModel>
      <root>
        <mxCell id="0" />
        <mxCell id="1" parent="0" />
      </root>
    </mxGraphModel>
  </diagram>
</mxfile>
